<mxfile modified="2022-04-04T22:13:46.769Z" host="app.diagrams.net" agent="5.0 (Windows NT 10.0; Win64; x64) AppleWebKit/537.36 (KHTML, like Gecko) Chrome/98.0.4758.102 Safari/537.36" etag="cfxdRbVT8YuAbKfjrsTo" version="17.4.0" type="github" pages="3">
  <diagram id="f106602c-feb2-e66a-4537-3a34d633f6aa" name="Sandbox Bakery">
    <mxGraphModel dx="1662" dy="882" grid="1" gridSize="10" guides="1" tooltips="1" connect="1" arrows="1" fold="1" page="1" pageScale="1" pageWidth="1169" pageHeight="827" background="none" math="0" shadow="0">
      <root>
        <mxCell id="0" />
        <mxCell id="1" parent="0" />
        <mxCell id="14" value="&lt;b&gt;Google &lt;/b&gt;Cloud Platform" style="fillColor=#F6F6F6;strokeColor=none;shadow=0;gradientColor=none;fontSize=14;align=left;spacing=10;fontColor=#717171;9E9E9E;verticalAlign=top;spacingTop=-4;fontStyle=0;spacingLeft=40;html=1;" parent="1" vertex="1">
          <mxGeometry x="520" y="96" width="450" height="367" as="geometry" />
        </mxCell>
        <mxCell id="15" value="" style="shape=mxgraph.gcp2.google_cloud_platform;fillColor=#F6F6F6;strokeColor=none;shadow=0;gradientColor=none;" parent="14" vertex="1">
          <mxGeometry width="23" height="20" relative="1" as="geometry">
            <mxPoint x="20" y="10" as="offset" />
          </mxGeometry>
        </mxCell>
        <mxCell id="ZkhYqguhMuYWFJe9Dj88-1052" value="Kubernetes&#xa;Engine" style="sketch=0;html=1;fillColor=#5184F3;strokeColor=none;verticalAlign=top;labelPosition=center;verticalLabelPosition=bottom;align=center;spacingTop=-6;fontSize=11;fontStyle=1;fontColor=#999999;shape=mxgraph.gcp2.hexIcon;prIcon=container_engine" parent="14" vertex="1">
          <mxGeometry x="340.5628248790107" y="7.038356164383561" width="66.10925424121972" height="58.820547945205476" as="geometry" />
        </mxCell>
        <mxCell id="JJU6Y2cLOWEsTwv16sT9-1059" value="" style="sketch=0;outlineConnect=0;fontColor=#FFFFFFF;gradientColor=none;fillColor=#2E27AD;strokeColor=none;dashed=0;verticalLabelPosition=bottom;verticalAlign=top;align=center;html=1;fontSize=12;fontStyle=0;aspect=fixed;pointerEvents=1;shape=mxgraph.aws4.rds_postgresql_instance;" vertex="1" parent="14">
          <mxGeometry x="321.0569045686029" y="155.6969696969697" width="68.03785488958992" height="68.03785488958992" as="geometry" />
        </mxCell>
        <mxCell id="JJU6Y2cLOWEsTwv16sT9-1060" value="" style="strokeColor=#dddddd;shadow=1;strokeWidth=1;rounded=1;absoluteArcSize=1;arcSize=2;" vertex="1" parent="14">
          <mxGeometry x="71.96" y="63.39" width="204.81" height="46.61" as="geometry" />
        </mxCell>
        <mxCell id="JJU6Y2cLOWEsTwv16sT9-1061" value="Sandbox Admin Cluster" style="sketch=0;dashed=0;connectable=0;html=1;fillColor=#757575;strokeColor=none;shape=mxgraph.gcp2.cluster;part=1;labelPosition=right;verticalLabelPosition=middle;align=left;verticalAlign=middle;spacingLeft=5;fontSize=12;" vertex="1" parent="JJU6Y2cLOWEsTwv16sT9-1060">
          <mxGeometry y="0.5" width="32" height="32" relative="1" as="geometry">
            <mxPoint x="5" y="-16" as="offset" />
          </mxGeometry>
        </mxCell>
        <mxCell id="JJU6Y2cLOWEsTwv16sT9-1062" value="" style="strokeColor=#dddddd;shadow=1;strokeWidth=1;rounded=1;absoluteArcSize=1;arcSize=2;" vertex="1" parent="14">
          <mxGeometry x="71.96" y="121.85" width="204.81" height="46.15" as="geometry" />
        </mxCell>
        <mxCell id="JJU6Y2cLOWEsTwv16sT9-1063" value="Mock API Cluster" style="sketch=0;dashed=0;connectable=0;html=1;fillColor=#757575;strokeColor=none;shape=mxgraph.gcp2.cluster;part=1;labelPosition=right;verticalLabelPosition=middle;align=left;verticalAlign=middle;spacingLeft=5;fontSize=12;" vertex="1" parent="JJU6Y2cLOWEsTwv16sT9-1062">
          <mxGeometry y="0.5" width="32" height="32" relative="1" as="geometry">
            <mxPoint x="5" y="-16" as="offset" />
          </mxGeometry>
        </mxCell>
        <mxCell id="JJU6Y2cLOWEsTwv16sT9-1064" value="" style="strokeColor=#dddddd;shadow=1;strokeWidth=1;rounded=1;absoluteArcSize=1;arcSize=2;" vertex="1" parent="14">
          <mxGeometry x="71.96" y="182.94" width="204.81" height="44.06" as="geometry" />
        </mxCell>
        <mxCell id="JJU6Y2cLOWEsTwv16sT9-1065" value="Sandbox APP Cluster" style="sketch=0;dashed=0;connectable=0;html=1;fillColor=#757575;strokeColor=none;shape=mxgraph.gcp2.cluster;part=1;labelPosition=right;verticalLabelPosition=middle;align=left;verticalAlign=middle;spacingLeft=5;fontSize=12;" vertex="1" parent="JJU6Y2cLOWEsTwv16sT9-1064">
          <mxGeometry y="0.5" width="32" height="32" relative="1" as="geometry">
            <mxPoint x="5" y="-16" as="offset" />
          </mxGeometry>
        </mxCell>
        <mxCell id="jaP9C_nKmoWO6yQBkwcc-1048" value="" style="strokeColor=#dddddd;shadow=1;strokeWidth=1;rounded=1;absoluteArcSize=1;arcSize=2;" vertex="1" parent="14">
          <mxGeometry x="71.96" y="242.93" width="204.81" height="43.07" as="geometry" />
        </mxCell>
        <mxCell id="jaP9C_nKmoWO6yQBkwcc-1049" value="AUTH API" style="sketch=0;dashed=0;connectable=0;html=1;fillColor=#757575;strokeColor=none;shape=mxgraph.gcp2.cluster;part=1;labelPosition=right;verticalLabelPosition=middle;align=left;verticalAlign=middle;spacingLeft=5;fontSize=12;" vertex="1" parent="jaP9C_nKmoWO6yQBkwcc-1048">
          <mxGeometry y="0.5" width="32" height="32" relative="1" as="geometry">
            <mxPoint x="5" y="-16" as="offset" />
          </mxGeometry>
        </mxCell>
        <mxCell id="jaP9C_nKmoWO6yQBkwcc-1047" value="" style="sketch=0;html=1;dashed=0;whitespace=wrap;fillColor=#2875E2;strokeColor=#ffffff;points=[[0.005,0.63,0],[0.1,0.2,0],[0.9,0.2,0],[0.5,0,0],[0.995,0.63,0],[0.72,0.99,0],[0.5,1,0],[0.28,0.99,0]];shape=mxgraph.kubernetes.icon;prIcon=api" vertex="1" parent="jaP9C_nKmoWO6yQBkwcc-1048">
          <mxGeometry x="1.998324324324325" y="4.764886363636364" width="38.74783783783784" height="32.302499999999995" as="geometry" />
        </mxCell>
        <mxCell id="jaP9C_nKmoWO6yQBkwcc-1055" value="" style="strokeColor=#dddddd;shadow=1;strokeWidth=1;rounded=1;absoluteArcSize=1;arcSize=2;" vertex="1" parent="14">
          <mxGeometry x="71.96" y="302.1" width="204.81" height="43.9" as="geometry" />
        </mxCell>
        <mxCell id="jaP9C_nKmoWO6yQBkwcc-1056" value="Web Server for App" style="sketch=0;dashed=0;connectable=0;html=1;fillColor=#757575;strokeColor=none;shape=mxgraph.gcp2.cluster;part=1;labelPosition=right;verticalLabelPosition=middle;align=left;verticalAlign=middle;spacingLeft=5;fontSize=12;" vertex="1" parent="jaP9C_nKmoWO6yQBkwcc-1055">
          <mxGeometry y="0.5" width="32" height="32" relative="1" as="geometry">
            <mxPoint x="5" y="-16" as="offset" />
          </mxGeometry>
        </mxCell>
        <mxCell id="jaP9C_nKmoWO6yQBkwcc-1058" value="" style="sketch=0;html=1;dashed=0;whitespace=wrap;fillColor=#2875E2;strokeColor=#ffffff;points=[[0.005,0.63,0],[0.1,0.2,0],[0.9,0.2,0],[0.5,0,0],[0.995,0.63,0],[0.72,0.99,0],[0.5,1,0],[0.28,0.99,0]];shape=mxgraph.kubernetes.icon;prIcon=cm" vertex="1" parent="jaP9C_nKmoWO6yQBkwcc-1055">
          <mxGeometry x="4.642486486486487" y="3.990909090909091" width="33.212432432432436" height="33.922727272727265" as="geometry" />
        </mxCell>
        <mxCell id="1036" value="Web App" style="strokeColor=#dddddd;fillColor=#ffffff;shadow=1;strokeWidth=1;rounded=1;absoluteArcSize=1;arcSize=2;labelPosition=center;verticalLabelPosition=middle;align=center;verticalAlign=bottom;spacingLeft=0;fontColor=#999999;fontSize=12;whiteSpace=wrap;spacingBottom=2;html=1;" parent="1" vertex="1">
          <mxGeometry x="320" y="230" width="70" height="100" as="geometry" />
        </mxCell>
        <mxCell id="1037" value="" style="dashed=0;connectable=0;html=1;fillColor=#757575;strokeColor=none;shape=mxgraph.gcp2.desktop_and_mobile;part=1;" parent="1036" vertex="1">
          <mxGeometry x="0.5" width="50" height="33" relative="1" as="geometry">
            <mxPoint x="-25" y="18.5" as="offset" />
          </mxGeometry>
        </mxCell>
        <mxCell id="1047" style="edgeStyle=orthogonalEdgeStyle;rounded=0;html=1;labelBackgroundColor=none;startFill=1;startSize=4;endArrow=blockThin;endFill=1;endSize=4;jettySize=auto;orthogonalLoop=1;strokeColor=#9E9E9E;strokeWidth=2;fontSize=12;fontColor=#000000;align=left;dashed=0;entryX=0;entryY=0.5;entryDx=0;entryDy=0;" parent="1" target="1040" edge="1">
          <mxGeometry relative="1" as="geometry">
            <Array as="points">
              <mxPoint x="420" y="280" />
              <mxPoint x="420" y="280" />
            </Array>
            <mxPoint x="390" y="280" as="sourcePoint" />
          </mxGeometry>
        </mxCell>
        <mxCell id="1040" value="&lt;br&gt;&lt;br&gt;&lt;br&gt;API Gateway&lt;br&gt;Access Controller" style="strokeColor=#dddddd;fillColor=#ffffff;shadow=1;strokeWidth=1;rounded=1;absoluteArcSize=1;arcSize=2;fontSize=11;fontColor=#9E9E9E;align=center;html=1;" parent="1" vertex="1">
          <mxGeometry x="465.5" y="240" width="110" height="80" as="geometry" />
        </mxCell>
        <mxCell id="ZkhYqguhMuYWFJe9Dj88-1054" value="" style="shape=image;verticalLabelPosition=bottom;labelBackgroundColor=default;verticalAlign=top;aspect=fixed;imageAspect=0;image=https://2tjosk2rxzc21medji3nfn1g-wpengine.netdna-ssl.com/wp-content/uploads/2019/02/kong-combination-mark-blue-64px.png;" parent="1040" vertex="1">
          <mxGeometry x="18.810000000000002" y="14.285714285714285" width="72.38" height="24" as="geometry" />
        </mxCell>
        <mxCell id="818" value="Architecture: Sandbox Bakery&amp;gt; DGP GCP Hosting" style="fillColor=#4DA1F5;strokeColor=none;shadow=1;gradientColor=none;fontSize=14;align=left;spacingLeft=50;fontColor=#ffffff;html=1;" parent="1" vertex="1">
          <mxGeometry x="251" y="40" width="720" height="40" as="geometry" />
        </mxCell>
      </root>
    </mxGraphModel>
  </diagram>
  <diagram id="kPd_mqOg0Y3QEFR6gRm2" name="NFT Payment">
    <mxGraphModel dx="1955" dy="1038" grid="1" gridSize="10" guides="1" tooltips="1" connect="1" arrows="1" fold="1" page="1" pageScale="1" pageWidth="850" pageHeight="1100" math="0" shadow="0">
      <root>
        <mxCell id="0" />
        <mxCell id="1" parent="0" />
        <mxCell id="Aw5t7Govg1y07IQCxeLe-1" value="" style="rounded=0;whiteSpace=wrap;html=1;" vertex="1" parent="1">
          <mxGeometry x="220" y="540" width="460" height="100" as="geometry" />
        </mxCell>
        <mxCell id="Aw5t7Govg1y07IQCxeLe-2" value="" style="shape=image;html=1;verticalAlign=top;verticalLabelPosition=bottom;labelBackgroundColor=#ffffff;imageAspect=0;aspect=fixed;image=https://cdn1.iconfinder.com/data/icons/cryptocurrency-blockchain-fintech-free/32/Cryptocurrency_blockchain_data-37-128.png" vertex="1" parent="1">
          <mxGeometry x="286" y="563" width="70" height="70" as="geometry" />
        </mxCell>
        <mxCell id="Aw5t7Govg1y07IQCxeLe-3" value="" style="shape=image;html=1;verticalAlign=top;verticalLabelPosition=bottom;labelBackgroundColor=#ffffff;imageAspect=0;aspect=fixed;image=https://cdn1.iconfinder.com/data/icons/cryptocurrency-blockchain-fintech-free/32/Cryptocurrency_blockchain_data-37-128.png" vertex="1" parent="1">
          <mxGeometry x="361.5" y="563" width="70" height="70" as="geometry" />
        </mxCell>
        <mxCell id="Aw5t7Govg1y07IQCxeLe-4" value="" style="shape=image;html=1;verticalAlign=top;verticalLabelPosition=bottom;labelBackgroundColor=#ffffff;imageAspect=0;aspect=fixed;image=https://cdn1.iconfinder.com/data/icons/cryptocurrency-blockchain-fintech-free/32/Cryptocurrency_blockchain_data-37-128.png" vertex="1" parent="1">
          <mxGeometry x="436" y="567" width="70" height="70" as="geometry" />
        </mxCell>
        <mxCell id="Aw5t7Govg1y07IQCxeLe-5" value="" style="shape=image;html=1;verticalAlign=top;verticalLabelPosition=bottom;labelBackgroundColor=#ffffff;imageAspect=0;aspect=fixed;image=https://cdn1.iconfinder.com/data/icons/cryptocurrency-blockchain-fintech-free/32/Cryptocurrency_blockchain_data-37-128.png" vertex="1" parent="1">
          <mxGeometry x="516" y="567" width="70" height="70" as="geometry" />
        </mxCell>
        <mxCell id="Aw5t7Govg1y07IQCxeLe-6" value="&lt;span style=&quot;color: rgb(0 , 0 , 0) ; font-family: &amp;#34;helvetica&amp;#34; ; font-size: 12px ; font-style: normal ; font-weight: 400 ; letter-spacing: normal ; text-align: center ; text-indent: 0px ; text-transform: none ; word-spacing: 0px ; background-color: rgb(255 , 255 , 255) ; display: inline ; float: none&quot;&gt;ETH Blockchain&lt;/span&gt;" style="text;whiteSpace=wrap;html=1;" vertex="1" parent="1">
          <mxGeometry x="237" y="540" width="100" height="30" as="geometry" />
        </mxCell>
        <mxCell id="osBrfdoOtprJgC8VZFu6-2" value="ETH Full Node" style="shape=image;html=1;verticalAlign=top;verticalLabelPosition=bottom;labelBackgroundColor=#ffffff;imageAspect=0;aspect=fixed;image=https://cdn3.iconfinder.com/data/icons/currency-and-cryptocurrency-signs-1/64/cryptocurrency_blockchain_Ethereum_ETH-128.png" vertex="1" parent="1">
          <mxGeometry x="410" y="440" width="54.3" height="54.3" as="geometry" />
        </mxCell>
        <mxCell id="C295W4PRih3O9kjpNBs7-1" value="&lt;b&gt;Google &lt;/b&gt;Cloud Platform&amp;nbsp;&lt;br&gt;Sandbox Bakery" style="fillColor=#F6F6F6;strokeColor=none;shadow=0;gradientColor=none;fontSize=14;align=left;spacing=10;fontColor=#717171;9E9E9E;verticalAlign=top;spacingTop=-4;fontStyle=0;spacingLeft=40;html=1;" vertex="1" parent="1">
          <mxGeometry x="237" y="94" width="450" height="340" as="geometry" />
        </mxCell>
        <mxCell id="C295W4PRih3O9kjpNBs7-2" value="" style="shape=mxgraph.gcp2.google_cloud_platform;fillColor=#F6F6F6;strokeColor=none;shadow=0;gradientColor=none;" vertex="1" parent="C295W4PRih3O9kjpNBs7-1">
          <mxGeometry width="23" height="20" relative="1" as="geometry">
            <mxPoint x="20" y="10" as="offset" />
          </mxGeometry>
        </mxCell>
        <mxCell id="C295W4PRih3O9kjpNBs7-3" value="Kubernetes&#xa;Engine" style="sketch=0;html=1;fillColor=#5184F3;strokeColor=none;verticalAlign=top;labelPosition=center;verticalLabelPosition=bottom;align=center;spacingTop=-6;fontSize=11;fontStyle=1;fontColor=#999999;shape=mxgraph.gcp2.hexIcon;prIcon=container_engine" vertex="1" parent="C295W4PRih3O9kjpNBs7-1">
          <mxGeometry x="395" y="4.632152588555859" width="38.61" height="27.79291553133515" as="geometry" />
        </mxCell>
        <mxCell id="C295W4PRih3O9kjpNBs7-4" value="" style="sketch=0;outlineConnect=0;fontColor=#FFFFFFF;gradientColor=none;fillColor=#2E27AD;strokeColor=none;dashed=0;verticalLabelPosition=bottom;verticalAlign=top;align=center;html=1;fontSize=12;fontStyle=0;aspect=fixed;pointerEvents=1;shape=mxgraph.aws4.rds_postgresql_instance;" vertex="1" parent="C295W4PRih3O9kjpNBs7-1">
          <mxGeometry x="295.7" y="201.7950953678474" width="48.66539509536785" height="48.66539509536785" as="geometry" />
        </mxCell>
        <mxCell id="osBrfdoOtprJgC8VZFu6-1" value="Node" style="aspect=fixed;perimeter=ellipsePerimeter;html=1;align=center;shadow=0;dashed=0;spacingTop=3;image;image=img/lib/active_directory/generic_node.svg;" vertex="1" parent="C295W4PRih3O9kjpNBs7-1">
          <mxGeometry x="154.5" y="138.2049046321526" width="64.88719346049047" height="63.590190735694826" as="geometry" />
        </mxCell>
        <mxCell id="unVsdlj2klUjXud6CAIM-4" value="Image Container Registry" style="shape=image;html=1;verticalAlign=top;verticalLabelPosition=bottom;labelBackgroundColor=#ffffff;imageAspect=0;aspect=fixed;image=https://cdn4.iconfinder.com/data/icons/essential-part-2/32/126-Server-128.png" vertex="1" parent="C295W4PRih3O9kjpNBs7-1">
          <mxGeometry x="301.39" y="92.64305177111717" width="38.113351498637606" height="38.113351498637606" as="geometry" />
        </mxCell>
        <mxCell id="C295W4PRih3O9kjpNBs7-17" value="&lt;br&gt;&lt;br&gt;&lt;br&gt;API Gateway&lt;br&gt;Access Controller" style="strokeColor=#dddddd;fillColor=#ffffff;shadow=1;strokeWidth=1;rounded=1;absoluteArcSize=1;arcSize=2;fontSize=11;fontColor=#9E9E9E;align=center;html=1;" vertex="1" parent="1">
          <mxGeometry x="173" y="224" width="110" height="80" as="geometry" />
        </mxCell>
        <mxCell id="C295W4PRih3O9kjpNBs7-18" value="" style="shape=image;verticalLabelPosition=bottom;labelBackgroundColor=default;verticalAlign=top;aspect=fixed;imageAspect=0;image=https://2tjosk2rxzc21medji3nfn1g-wpengine.netdna-ssl.com/wp-content/uploads/2019/02/kong-combination-mark-blue-64px.png;" vertex="1" parent="C295W4PRih3O9kjpNBs7-17">
          <mxGeometry x="18.810000000000002" y="14.285714285714285" width="72.38" height="24" as="geometry" />
        </mxCell>
        <mxCell id="unVsdlj2klUjXud6CAIM-1" value="Web App" style="strokeColor=#dddddd;fillColor=#ffffff;shadow=1;strokeWidth=1;rounded=1;absoluteArcSize=1;arcSize=2;labelPosition=center;verticalLabelPosition=middle;align=center;verticalAlign=bottom;spacingLeft=0;fontColor=#999999;fontSize=12;whiteSpace=wrap;spacingBottom=2;html=1;" vertex="1" parent="1">
          <mxGeometry x="27.5" y="214" width="70" height="100" as="geometry" />
        </mxCell>
        <mxCell id="unVsdlj2klUjXud6CAIM-2" value="" style="dashed=0;connectable=0;html=1;fillColor=#757575;strokeColor=none;shape=mxgraph.gcp2.desktop_and_mobile;part=1;" vertex="1" parent="unVsdlj2klUjXud6CAIM-1">
          <mxGeometry x="0.5" width="50" height="33" relative="1" as="geometry">
            <mxPoint x="-25" y="18.5" as="offset" />
          </mxGeometry>
        </mxCell>
        <mxCell id="unVsdlj2klUjXud6CAIM-3" style="edgeStyle=orthogonalEdgeStyle;rounded=0;html=1;labelBackgroundColor=none;startFill=1;startSize=4;endArrow=blockThin;endFill=1;endSize=4;jettySize=auto;orthogonalLoop=1;strokeColor=#9E9E9E;strokeWidth=2;fontSize=12;fontColor=#000000;align=left;dashed=0;entryX=0;entryY=0.5;entryDx=0;entryDy=0;" edge="1" parent="1">
          <mxGeometry relative="1" as="geometry">
            <Array as="points">
              <mxPoint x="127.5" y="264" />
              <mxPoint x="127.5" y="264" />
            </Array>
            <mxPoint x="97.5" y="264" as="sourcePoint" />
            <mxPoint x="173" y="264" as="targetPoint" />
          </mxGeometry>
        </mxCell>
      </root>
    </mxGraphModel>
  </diagram>
  <diagram id="DWW4xn2G8R4gNXDJiR_V" name="Page-3">
    <mxGraphModel dx="950" dy="504" grid="1" gridSize="10" guides="1" tooltips="1" connect="1" arrows="1" fold="1" page="1" pageScale="1" pageWidth="850" pageHeight="1100" math="0" shadow="0">
      <root>
        <mxCell id="0" />
        <mxCell id="1" parent="0" />
        <mxCell id="5VeUjvJNurNlVpVG63F4-3" value="" style="swimlane;startSize=0;" vertex="1" parent="1">
          <mxGeometry x="430" y="100" width="410" height="270" as="geometry">
            <mxRectangle x="450" y="110" width="50" height="40" as="alternateBounds" />
          </mxGeometry>
        </mxCell>
        <mxCell id="5VeUjvJNurNlVpVG63F4-13" value="" style="swimlane;startSize=0;fontSize=8;" vertex="1" parent="5VeUjvJNurNlVpVG63F4-3">
          <mxGeometry x="20" y="70" width="170" height="140" as="geometry" />
        </mxCell>
        <mxCell id="5VeUjvJNurNlVpVG63F4-16" value="Company A" style="swimlane;fontStyle=0;childLayout=stackLayout;horizontal=1;startSize=30;horizontalStack=0;resizeParent=1;resizeParentMax=0;resizeLast=0;collapsible=1;marginBottom=0;fontSize=8;" vertex="1" parent="5VeUjvJNurNlVpVG63F4-13">
          <mxGeometry x="7" y="40" width="75" height="90" as="geometry" />
        </mxCell>
        <mxCell id="5VeUjvJNurNlVpVG63F4-17" value="Project 1&#xa;Dev1&#xa;Dev2 " style="text;strokeColor=none;fillColor=none;align=left;verticalAlign=middle;spacingLeft=4;spacingRight=4;overflow=hidden;points=[[0,0.5],[1,0.5]];portConstraint=eastwest;rotatable=0;fontSize=8;" vertex="1" parent="5VeUjvJNurNlVpVG63F4-16">
          <mxGeometry y="30" width="75" height="30" as="geometry" />
        </mxCell>
        <mxCell id="5VeUjvJNurNlVpVG63F4-19" value=" " style="text;strokeColor=none;fillColor=none;align=left;verticalAlign=middle;spacingLeft=4;spacingRight=4;overflow=hidden;points=[[0,0.5],[1,0.5]];portConstraint=eastwest;rotatable=0;fontSize=8;" vertex="1" parent="5VeUjvJNurNlVpVG63F4-16">
          <mxGeometry y="60" width="75" height="30" as="geometry" />
        </mxCell>
        <mxCell id="5VeUjvJNurNlVpVG63F4-20" value="Company B" style="swimlane;fontStyle=0;childLayout=stackLayout;horizontal=1;startSize=30;horizontalStack=0;resizeParent=1;resizeParentMax=0;resizeLast=0;collapsible=1;marginBottom=0;fontSize=8;" vertex="1" parent="5VeUjvJNurNlVpVG63F4-13">
          <mxGeometry x="88" y="40" width="75" height="90" as="geometry" />
        </mxCell>
        <mxCell id="5VeUjvJNurNlVpVG63F4-21" value="Project 1&#xa;Dev1&#xa;Dev2" style="text;strokeColor=none;fillColor=none;align=left;verticalAlign=middle;spacingLeft=4;spacingRight=4;overflow=hidden;points=[[0,0.5],[1,0.5]];portConstraint=eastwest;rotatable=0;fontSize=8;" vertex="1" parent="5VeUjvJNurNlVpVG63F4-20">
          <mxGeometry y="30" width="75" height="30" as="geometry" />
        </mxCell>
        <mxCell id="5VeUjvJNurNlVpVG63F4-23" value="Project 2&#xa;Dev1" style="text;strokeColor=none;fillColor=none;align=left;verticalAlign=middle;spacingLeft=4;spacingRight=4;overflow=hidden;points=[[0,0.5],[1,0.5]];portConstraint=eastwest;rotatable=0;fontSize=8;" vertex="1" parent="5VeUjvJNurNlVpVG63F4-20">
          <mxGeometry y="60" width="75" height="30" as="geometry" />
        </mxCell>
        <mxCell id="5VeUjvJNurNlVpVG63F4-14" value="&lt;b&gt;Wholesale Sandbox Groups&lt;/b&gt;" style="text;html=1;align=center;verticalAlign=middle;resizable=0;points=[];autosize=1;strokeColor=none;fillColor=none;fontSize=8;" vertex="1" parent="5VeUjvJNurNlVpVG63F4-13">
          <mxGeometry x="20" width="120" height="20" as="geometry" />
        </mxCell>
        <mxCell id="5VeUjvJNurNlVpVG63F4-24" value="" style="swimlane;startSize=0;fontSize=8;" vertex="1" parent="5VeUjvJNurNlVpVG63F4-3">
          <mxGeometry x="220" y="70" width="130" height="140" as="geometry" />
        </mxCell>
        <mxCell id="5VeUjvJNurNlVpVG63F4-26" value="API X.1.1" style="swimlane;fontStyle=0;childLayout=stackLayout;horizontal=1;startSize=30;horizontalStack=0;resizeParent=1;resizeParentMax=0;resizeLast=0;collapsible=1;marginBottom=0;fontSize=8;" vertex="1" collapsed="1" parent="5VeUjvJNurNlVpVG63F4-24">
          <mxGeometry x="43" y="34" width="70" height="20" as="geometry">
            <mxRectangle x="33" y="40" width="75" height="60" as="alternateBounds" />
          </mxGeometry>
        </mxCell>
        <mxCell id="5VeUjvJNurNlVpVG63F4-28" value=" " style="text;strokeColor=none;fillColor=none;align=left;verticalAlign=middle;spacingLeft=4;spacingRight=4;overflow=hidden;points=[[0,0.5],[1,0.5]];portConstraint=eastwest;rotatable=0;fontSize=8;" vertex="1" parent="5VeUjvJNurNlVpVG63F4-26">
          <mxGeometry y="30" width="75" height="30" as="geometry" />
        </mxCell>
        <mxCell id="5VeUjvJNurNlVpVG63F4-34" value="API X.1.2" style="swimlane;fontStyle=0;childLayout=stackLayout;horizontal=1;startSize=30;horizontalStack=0;resizeParent=1;resizeParentMax=0;resizeLast=0;collapsible=1;marginBottom=0;fontSize=8;" vertex="1" collapsed="1" parent="5VeUjvJNurNlVpVG63F4-24">
          <mxGeometry x="43" y="63" width="70" height="20" as="geometry">
            <mxRectangle x="33" y="40" width="75" height="60" as="alternateBounds" />
          </mxGeometry>
        </mxCell>
        <mxCell id="5VeUjvJNurNlVpVG63F4-35" value=" " style="text;strokeColor=none;fillColor=none;align=left;verticalAlign=middle;spacingLeft=4;spacingRight=4;overflow=hidden;points=[[0,0.5],[1,0.5]];portConstraint=eastwest;rotatable=0;fontSize=8;" vertex="1" parent="5VeUjvJNurNlVpVG63F4-34">
          <mxGeometry y="30" width="75" height="30" as="geometry" />
        </mxCell>
        <mxCell id="5VeUjvJNurNlVpVG63F4-36" value="API X.1.3" style="swimlane;fontStyle=0;childLayout=stackLayout;horizontal=1;startSize=30;horizontalStack=0;resizeParent=1;resizeParentMax=0;resizeLast=0;collapsible=1;marginBottom=0;fontSize=8;" vertex="1" collapsed="1" parent="5VeUjvJNurNlVpVG63F4-24">
          <mxGeometry x="43" y="92" width="70" height="20" as="geometry">
            <mxRectangle x="33" y="120" width="75" height="60" as="alternateBounds" />
          </mxGeometry>
        </mxCell>
        <mxCell id="5VeUjvJNurNlVpVG63F4-37" value=" " style="text;strokeColor=none;fillColor=none;align=left;verticalAlign=middle;spacingLeft=4;spacingRight=4;overflow=hidden;points=[[0,0.5],[1,0.5]];portConstraint=eastwest;rotatable=0;fontSize=8;" vertex="1" parent="5VeUjvJNurNlVpVG63F4-36">
          <mxGeometry y="30" width="75" height="30" as="geometry" />
        </mxCell>
        <mxCell id="5VeUjvJNurNlVpVG63F4-5" value="Developer Portal" style="text;html=1;strokeColor=none;fillColor=none;align=center;verticalAlign=middle;whiteSpace=wrap;rounded=0;" vertex="1" parent="5VeUjvJNurNlVpVG63F4-3">
          <mxGeometry x="10" width="190" height="30" as="geometry" />
        </mxCell>
        <mxCell id="5VeUjvJNurNlVpVG63F4-25" value="&lt;b&gt;API Docs&lt;/b&gt;" style="text;html=1;align=center;verticalAlign=middle;resizable=0;points=[];autosize=1;strokeColor=none;fillColor=none;fontSize=8;" vertex="1" parent="5VeUjvJNurNlVpVG63F4-3">
          <mxGeometry x="270" y="70" width="50" height="20" as="geometry" />
        </mxCell>
        <mxCell id="5VeUjvJNurNlVpVG63F4-40" value="Sandbox Controller" style="rounded=0;whiteSpace=wrap;html=1;fontSize=8;" vertex="1" parent="5VeUjvJNurNlVpVG63F4-3">
          <mxGeometry x="320" y="227" width="70" height="30" as="geometry" />
        </mxCell>
        <mxCell id="5VeUjvJNurNlVpVG63F4-9" value="Sandbox Admin&lt;br&gt;HSBC" style="points=[[0.35,0,0],[0.98,0.51,0],[1,0.71,0],[0.67,1,0],[0,0.795,0],[0,0.65,0]];verticalLabelPosition=bottom;sketch=0;html=1;verticalAlign=top;aspect=fixed;align=center;pointerEvents=1;shape=mxgraph.cisco19.user;fillColor=#005073;strokeColor=none;" vertex="1" parent="1">
          <mxGeometry x="350" y="250" width="50" height="50" as="geometry" />
        </mxCell>
        <mxCell id="5VeUjvJNurNlVpVG63F4-10" value="Developer" style="points=[[0.35,0,0],[0.98,0.51,0],[1,0.71,0],[0.67,1,0],[0,0.795,0],[0,0.65,0]];verticalLabelPosition=bottom;sketch=0;html=1;verticalAlign=top;aspect=fixed;align=center;pointerEvents=1;shape=mxgraph.cisco19.user;fillColor=#005073;strokeColor=none;" vertex="1" parent="1">
          <mxGeometry x="350" y="130" width="50" height="50" as="geometry" />
        </mxCell>
        <mxCell id="TD0l9zmvKjKw0xflTruU-1" value="&lt;b&gt;GCP - Wholesale Banking&lt;/b&gt;" style="fillColor=#F6F6F6;strokeColor=none;shadow=0;gradientColor=none;fontSize=14;align=left;spacing=10;fontColor=#717171;9E9E9E;verticalAlign=top;spacingTop=-4;fontStyle=0;spacingLeft=40;html=1;" vertex="1" parent="1">
          <mxGeometry x="865" y="110" width="490" height="283" as="geometry" />
        </mxCell>
        <mxCell id="TD0l9zmvKjKw0xflTruU-2" value="" style="shape=mxgraph.gcp2.google_cloud_platform;fillColor=#F6F6F6;strokeColor=none;shadow=0;gradientColor=none;" vertex="1" parent="TD0l9zmvKjKw0xflTruU-1">
          <mxGeometry width="23" height="20" relative="1" as="geometry">
            <mxPoint x="20" y="10" as="offset" />
          </mxGeometry>
        </mxCell>
        <mxCell id="TD0l9zmvKjKw0xflTruU-3" value="Cloud LB" style="sketch=0;html=1;fillColor=#5184F3;strokeColor=none;verticalAlign=top;labelPosition=center;verticalLabelPosition=bottom;align=center;spacingTop=-6;fontSize=11;fontStyle=1;fontColor=#999999;shape=mxgraph.gcp2.hexIcon;prIcon=container_engine" vertex="1" parent="TD0l9zmvKjKw0xflTruU-1">
          <mxGeometry x="370.8350759793672" y="5.427397260273973" width="71.98563239599481" height="45.35753424657534" as="geometry" />
        </mxCell>
        <mxCell id="TD0l9zmvKjKw0xflTruU-20" value="" style="swimlane;startSize=0;fontSize=8;" vertex="1" parent="TD0l9zmvKjKw0xflTruU-1">
          <mxGeometry x="50" y="32.95" width="220" height="227.05" as="geometry">
            <mxRectangle x="50" y="32.94999999999999" width="50" height="40" as="alternateBounds" />
          </mxGeometry>
        </mxCell>
        <mxCell id="TD0l9zmvKjKw0xflTruU-22" value="" style="strokeColor=#dddddd;shadow=1;strokeWidth=1;rounded=1;absoluteArcSize=1;arcSize=2;fontSize=8;" vertex="1" parent="TD0l9zmvKjKw0xflTruU-20">
          <mxGeometry x="17.5" y="7.099999999999994" width="185" height="39.95" as="geometry" />
        </mxCell>
        <mxCell id="TD0l9zmvKjKw0xflTruU-23" value="&lt;font color=&quot;#000000&quot;&gt;HSBC Wholesale&amp;nbsp;&lt;/font&gt;&lt;br&gt;Apigee API Platform" style="sketch=0;dashed=0;connectable=0;html=1;fillColor=#5184F3;strokeColor=none;shape=mxgraph.gcp2.hexIcon;prIcon=apigee_api_platform;part=1;labelPosition=right;verticalLabelPosition=middle;align=left;verticalAlign=middle;spacingLeft=5;fontColor=#999999;fontSize=12;" vertex="1" parent="TD0l9zmvKjKw0xflTruU-22">
          <mxGeometry y="0.5" width="44" height="39" relative="1" as="geometry">
            <mxPoint x="5" y="-19.5" as="offset" />
          </mxGeometry>
        </mxCell>
      </root>
    </mxGraphModel>
  </diagram>
</mxfile>
